PathFileType	4	(X/Y/Z)	D:\Share\Shared_Data\Ergonomics\Sit To Stand Pertubation\S0\Free STS.trc
DataRate	CameraRate	NumFrames	NumMarkers	Units	OrigDataRate	OrigDataStartFrame	OrigNumFrames	
100	100	9	18	m	100	2849	211
Frame#	Time	R_Toe			R_ASIS			R_Pelvis			V_Sacral			L_Pelvis			L_ASIS			Clavical			R_Acromium			L_Acromium			Sternum			Torso			R_Thigh_Med			R_Thigh_Lat			R_Thigh			R_Shank_Med			R_Shank_Lat			R_Shank			R_Heel			
		X1	Y1	Z1	X2	Y2	Z2	X3	Y3	Z3	X4	Y4	Z4	X5	Y5	Z5	X6	Y6	Z6	X7	Y7	Z7	X8	Y8	Z8	X9	Y9	Z9	X10	Y10	Z10	X11	Y11	Z11	X12	Y12	Z12	X13	Y13	Z13	X14	Y14	Z14	X15	Y15	Z15	X16	Y16	Z16	X17	Y17	Z17	X18	Y18	Z18	

2849	14.91	0.37708511	0.046227798	0.1375779	0.18921111	0.87970703	0.1594671	0.085568993	0.94856451	0.20976324	-0.041983067	0.98516296	-0.017109324	0.087961395	0.92910187	-0.20224927	0.19174428	0.86503387	-0.15254189	0.43657864	1.2019327	-0.010372954	0.3964227	1.2945538	0.12378955	0.38259894	1.3056008	-0.15102525	0.41317365	1.1081785	-0.030697056	0.41424594	1.163719	-0.12835132	0.32828247	0.4834863	0.059904495	0.32756476	0.5055307	0.19237126	0.33326297	0.6578504	0.11892075	0.2522549	0.098323845	0.10177905	0.19815633	0.089304825	0.19316956	0.26701807	0.30964212	0.20944987	0.15342262	0.044362785	0.15025375
2850	14.92	0.37721085	0.046106094	0.13762082	0.19211194	0.88322211	0.15954358	0.088451012	0.95183337	0.20991057	-0.03903788	0.98823657	-0.017037058	0.090806641	0.93262982	-0.20235678	0.19413727	0.86845947	-0.15251302	0.43681122	1.2091749	-0.01047897	0.39584436	1.3012434	0.12393153	0.38184094	1.3125111	-0.15112862	0.41421304	1.1151807	-0.030738413	0.41483829	1.1708101	-0.12866306	0.32821021	0.4836051	0.059760315	0.32748868	0.50564908	0.19215955	0.33481219	0.65792236	0.11912736	0.25235016	0.098343719	0.1018024	0.19817679	0.089318192	0.19319182	0.26685989	0.30975351	0.20941148	0.15343248	0.044422985	0.15031905
2851	14.93	0.37732626	0.04599622	0.137672	0.19509299	0.88677838	0.15961816	0.091351768	0.95509515	0.2100311	-0.036054981	0.99126312	-0.016995501	0.093733353	0.93613019	-0.20247087	0.19657802	0.87188385	-0.15246753	0.43695804	1.2164417	-0.010580512	0.39516812	1.3079514	0.12408672	0.38099918	1.3194283	-0.15122786	0.41519205	1.1222075	-0.030768217	0.41536407	1.1779226	-0.1289828	0.32812201	0.48373444	0.059630096	0.32737793	0.50577557	0.19195679	0.33634494	0.65797681	0.11933114	0.25243271	0.098365074	0.10183477	0.19819107	0.089333	0.19321657	0.26667767	0.30986893	0.20938715	0.1534427	0.044483788	0.15038332
2852	14.94	0.37742316	0.045901901	0.13772873	0.19814365	0.89038379	0.15968665	0.094268318	0.95835284	0.21011707	-0.033038452	0.99423822	-0.016985924	0.096736771	0.93959473	-0.20259016	0.19912402	0.87533246	-0.15241092	0.43701868	1.223726	-0.010677105	0.39440125	1.3146705	0.12425659	0.38007938	1.3263409	-0.15132109	0.41611664	1.1292532	-0.030785625	0.41582022	1.1850472	-0.12930887	0.32801312	0.48387375	0.059515148	0.32722607	0.50590997	0.19176312	0.33785425	0.65801562	0.11952314	0.25249088	0.098387794	0.10187666	0.19819501	0.089347694	0.19324586	0.26647244	0.3099848	0.20937373	0.15345007	0.04454073	0.15044759
2853	14.95	0.37749527	0.045825779	0.13778891	0.2012424	0.89403809	0.15975031	0.097200211	0.96160175	0.21016377	-0.029992264	0.99715558	-0.017009193	0.09981131	0.94301624	-0.20271225	0.20182469	0.87882507	-0.15235179	0.43699252	1.2310206	-0.010768209	0.39354785	1.3213926	0.12444119	0.3790871	1.3332383	-0.15140703	0.41699301	1.1363104	-0.030789457	0.41620444	1.1921746	-0.12963766	0.32787256	0.48401871	0.059416435	0.32702731	0.50605231	0.19157936	0.33933484	0.65804224	0.11969699	0.2525273	0.098414787	0.10192623	0.19818486	0.089360695	0.19328096	0.26624356	0.31009763	0.2093679	0.15345224	0.044589558	0.15051237
2854	14.96	0.37754044	0.045768242	0.13785135	0.20435992	0.89773584	0.15981328	0.10014967	0.96483032	0.21016942	-0.026919567	1.0000089	-0.017065634	0.10295091	0.94638818	-0.2028344	0.20470534	0.88236792	-0.15230138	0.43687915	1.2383192	-0.010853368	0.39260898	1.3281085	0.12463935	0.37802695	1.3401101	-0.15148561	0.41782556	1.1433738	-0.030777752	0.41651431	1.1992955	-0.12996466	0.32768732	0.48416251	0.059333927	0.32677771	0.50620282	0.1914066	0.34078357	0.65805963	0.11984982	0.25255234	0.098449188	0.10198055	0.1981588	0.089370689	0.19332198	0.26598874	0.31020538	0.20936684	0.15344963	0.044627216	0.15057755
2855	14.97	0.37756161	0.045727287	0.137916	0.20747055	0.90147192	0.15987477	0.10311872	0.96802576	0.21013354	-0.02382262	1.002791	-0.017154652	0.10614928	0.94970593	-0.20295496	0.20777069	0.88595703	-0.1522718	0.43667838	1.245615	-0.010932527	0.39158331	1.3348104	0.12484956	0.37690204	1.3469473	-0.15155766	0.41861722	1.1504371	-0.030747961	0.41674872	1.2064021	-0.13028549	0.32744803	0.48429956	0.059266499	0.32647543	0.50636197	0.191246	0.3421991	0.6580686	0.1199821	0.25257533	0.098491928	0.10203745	0.19811742	0.089377129	0.19336766	0.26570483	0.31030804	0.20936833	0.15344608	0.044652496	0.15064272
2856	14.98	0.37756525	0.045699173	0.1379838	0.2105667	0.90524133	0.15992738	0.10610769	0.97117651	0.21005606	-0.020703041	1.005496	-0.017274456	0.10940002	0.95296606	-0.20307416	0.21101312	0.88958405	-0.15227321	0.4363905	1.2529021	-0.011006415	0.39046948	1.3414899	0.12507054	0.37571329	1.3537418	-0.15162437	0.419371	1.1574956	-0.030697742	0.41691003	1.2134872	-0.13059636	0.32715182	0.48442792	0.059212132	0.32612122	0.50653076	0.19109804	0.34358121	0.65806781	0.12009665	0.25260004	0.098541618	0.10209657	0.19806291	0.089380173	0.1934158	0.26538898	0.31040833	0.20937018	0.15344815	0.044666187	0.15070747
2857	14.99	0.37755911	0.04567918	0.1380564	0.21366312	0.90903583	0.15996313	0.1091159	0.9742735	0.20993814	-0.017562151	1.0081192	-0.017422318	0.11269743	0.95616565	-0.20319328	0.21442003	0.89324231	-0.15231078	0.43601688	1.2601748	-0.011076827	0.38926678	1.3481395	0.12530145	0.37445944	1.3604865	-0.15168669	0.42009042	1.1645435	-0.030625927	0.41700351	1.2205446	-0.13089447	0.32680246	0.48454962	0.059168064	0.32571713	0.50671069	0.1909621	0.34492966	0.65805511	0.12019712	0.25262436	0.098595406	0.1021594	0.19799823	0.089380684	0.19346382	0.265039	0.31051059	0.20937021	0.15346254	0.044670822	0.15077124
